<!DOCTYPE svg PUBLIC "-//W3C//DTD SVG 1.1//EN" "http://www.w3.org/Graphics/SVG/1.1/DTD/svg11.dtd" [
	<!ENTITY ns_flows "http://ns.adobe.com/Flows/1.0/">
]><svg xmlns="http://www.w3.org/2000/svg" width="185" height="165" viewBox="-3 -17.044 185 165" enable-background="new -3 -17.044 185 165"><path fill="#2B2A28" d="M56.246 131l-.61-5.27c35.448-4.11 65.22-.033 65.516.01l-.734 5.248c-.293-.038-29.43-4.02-64.172.012"/><path fill="#2B2A28" d="M92.612 126.045l7.436-14.166h-22.64l7.434 14.165z"/><path fill="#2C2B29" d="M41.147 75C12.723 75 0 52.24 0 29.686 0 14.666 4.18 5.18 4.358 4.78c.17-.377.583-.57.99-.45.394.123.64.518.57.926-.053.306-5.048 30.855 8.013 48.057 5.053 6.656 12.21 10.507 21.272 11.454.946.1 1.894.147 2.82.147 5.68 0 10.21-1.8 15.452-3.888 6.066-2.416 12.943-5.153 22.944-5.312l.324-.003c2.72 0 4.552.576 5.763 1.81 1.112 1.134 1.636 2.764 1.597 4.983-.084 4.49-4.808 6.52-7.346 7.606C72.512 71.925 60.24 75 41.146 75M137.693 75c-19.094 0-31.366-3.074-35.608-4.89-2.538-1.09-7.264-3.117-7.344-7.607-.04-2.22.48-3.85 1.595-4.983 1.214-1.233 3.045-1.81 5.763-1.81l.325.004c10 .16 16.877 2.896 22.944 5.312 5.24 2.088 9.77 3.888 15.45 3.888.927 0 1.876-.05 2.82-.147 9.065-.947 16.222-4.8 21.272-11.458 13.067-17.215 8.065-47.75 8.01-48.055-.07-.408.177-.803.57-.925.405-.12.82.072.99.45.18.397 4.358 9.885 4.358 24.904C178.84 52.24 166.118 75 137.693 75"/><path fill="#2C2B29" d="M151.035 101.55c-19.938 3.85-40.763 5.802-61.935 5.802h-.008c-31.412 0-54.626-4.36-61.242-5.752l-2.016-37.518c-1.935-.638-3.744-1.39-5.432-2.247l2.368 44.03 1.916.465c.26.06 26.53 6.32 64.405 6.32h.007c22.237 0 44.103-2.12 64.994-6.3l2.02-.4 2.37-44.137c-1.688.857-3.498 1.613-5.432 2.257l-2.013 37.48zM160.205 29.182c-.14-1.553-.465-5.195-31.143-17.283C115.172 6.424 96.416.03 90.004.245H88.88C88.77.24 88.65.24 88.535.24c-6.732 0-25.062 6.28-38.71 11.66-30.68 12.087-31.008 15.728-31.146 17.282l-.02.19 1.297 21.75c1.597 1.636 3.37 2.793 5.474 3.82l-1.42-24.86c2.034-1.88 11.934-7.11 29.5-13.935C69.596 9.9 83.996 5.54 88.537 5.54c.068 0 .137 0 .202.002l1.312.004.1-.004h.202c4.537 0 18.94 4.36 35.022 10.605 17.568 6.824 27.47 12.056 29.5 13.937L153.45 55.48c1.822-1.062 4-2.925 5.545-4.415l1.217-21.505.01-.188-.017-.19z"/></svg>