<!DOCTYPE svg PUBLIC "-//W3C//DTD SVG 1.1//EN" "http://www.w3.org/Graphics/SVG/1.1/DTD/svg11.dtd" [
	<!ENTITY ns_flows "http://ns.adobe.com/Flows/1.0/">
]><svg xmlns="http://www.w3.org/2000/svg" xmlns:xlink="http://www.w3.org/1999/xlink" width="251" height="165" viewBox="-30.333 -17.044 251 165" enable-background="new -30.333 -17.044 251 165"><path fill="#2C2B29" d="M153.404 36.3l-1.672 31.15 5.168.95 1.803-33.643zM149.924 101.142c-19.598 3.78-40.064 5.7-60.873 5.7h-.007c-30.872 0-53.688-4.284-60.19-5.65L25.076 30.9c2-1.847 11.73-6.99 28.998-13.694 15.806-6.14 29.96-10.424 34.422-10.424h.197l1.293.002h.096c.063-.002.127-.002.198-.002 4.458 0 18.614 4.283 34.42 10.424 12.498 4.853 21.027 8.882 25.557 11.442l6.125-2.17c-3.246-2.53-10.71-6.614-28.055-13.447C114.677 7.65 96.242 1.364 89.94 1.577h-1.105c-.11-.005-.226-.005-.34-.005-6.616 0-24.632 6.17-38.046 11.46-30.153 11.88-30.475 15.458-30.61 16.986l-.02.185 4.04 75.182 1.883.457c.257.06 26.072 6.212 63.3 6.212h.008c21.853 0 43.342-2.084 63.874-6.19l1.988-.396 1.318-24.61-5.15-1.253-1.156 21.54z"/><path fill="#2B2A28" d="M56.61 130.29l-.6-5.18c34.838-4.04 64.102-.03 64.392.01l-.723 5.16c-.287-.038-28.926-3.954-63.07.01"/><path fill="#2B2A28" d="M92.35 125.42l7.31-13.924H77.408l7.307 13.923z"/><path stroke="#2B2A28" stroke-width="3.06" stroke-miterlimit="10" d="M116.688 46.29c-.174-1.93-22.67-10.796-26.96-10.635h-.486c-4.29-.16-26.79 8.705-26.956 10.634l1.59 29.798s23.16 5.637 51.215 0l1.598-29.8z" fill="none"/><defs><path id="a" d="M89.556 58.488h33.218v48.886H89.556z"/></defs><clipPath id="b"><use xlink:href="#a" overflow="visible"/></clipPath><path clip-path="url(#b)" d="M91.854 61.817l-2.298 1.758 2.048 3.755 23.825 40.043 7.343-.395-31.298-48.49-.84.92z"/><path fill="#2C2B29" d="M171.03 26.134L89.553 54.99v3l1.085 1.417 83.396-24.266z"/><path d="M172.885 31.698L89.555 57.93v.06l1.082 1.418 83.396-24.267z"/><path fill="#52504D" d="M207.484 4.818l-4.267 16.735 11.158 11.155-24.082 4.516-6.67-4.252 1.168 4.252-9.677 1.086-7.004-7.173 4.253-12.508 17.262-6.842v3.92l4.756-6.67z"/><path fill="#2C2B29" d="M175.12 38.31l9.67-1.085-1.167-4.255 6.67 4.255 24.078-4.516-11.122-11.125-35.094 9.598zM172.744 76.142L89.58 60.834l-.01 2.77 1.302 1.975 80.052 19.507z"/><path d="M171.62 81.666L89.6 63.556l-.027.048 1.01 1.925 80.34 19.557z"/><path fill="#52504D" d="M213.34 75.865L201.76 87.76l3.945 14.65-22.23-7.787-3.52-6.745-1.07 4.104-8.576-3.736-2.402-9.336 9.547-8.38 17.664 2.58-1.882 3.265 7.16-3.28z"/><path fill="#2C2B29" d="M170.31 88.246l8.575 3.736 1.07-4.104 3.52 6.745 22.23 7.787-3.935-14.608-33.846-8.832z"/></svg>