<svg xmlns="http://www.w3.org/2000/svg" width="177.5" height="169.167"><defs><clipPath id="a"><path d="M0 135.334h142V0H0v135.334z"/></clipPath><clipPath><path d="M45.546 68.08h7.157v-2.894h-7.157v2.895z"/></clipPath><clipPath id="b"><path d="M45.546 65.186h7.156v2.895h-7.156v-2.894z"/></clipPath><clipPath><path d="M59.138 68.294h7.192V65.28h-7.192v3.014z"/></clipPath><clipPath id="c"><path d="M59.14 65.28h7.19v3.014h-7.19V65.28z"/></clipPath><clipPath><path d="M89.168 68.162h6.99v-3.054h-6.99v3.054z"/></clipPath><clipPath id="d"><path d="M89.167 65.11h6.99v3.05h-6.99v-3.05z"/></clipPath></defs><g clip-path="url(#a)"><path d="M140.89 98.3c0 7.81-3.25 8.466-6.295 8.466h-9.534l-5.79-22.61c6.025.16 11.976.378 17.805.65l.364.113c.94.29 3.45 2.282 3.45 8.73v4.65zm-203.917-124.6c2.677-.03 5.36-.054 8.05-.07l2.658-10.594 4.06 15.775c-17.145-.03-34.27.358-50.346 1.165-.142.007.04 6.656 0 6.656 5.057-.252 10.26-.46 15.497-.63L-88.8 8.43h-5.865c-6.352 0-9.44-3.142-9.44-9.607l.005-26.35c0-5.832 2.774-13.34 10.672-17.042 7.897-3.698 19.252-7.02 19.252-7.02l-5.838 25.64c2.553-.07 5.12-.135 7.7-.19l9.74-38.778s-12.656 3.423-31.166 11.32c-18.51 7.897-18.126 19.992-18.126 25.835l-.014 26.585c0 10.897 6.435 17.405 17.215 17.405l11.94.002s5.284-20.78 7.713-30.464c2.966-.07 5.947-.127 8.94-.176l-7.714 30.64h8.037l7.77-30.733c3.807-.028 7.62-.035 11.432-.025l7.92 30.757h8.022l-7.905-30.7c3.034.035 6.064.076 9.08.135l7.83 30.564 15.304-.003C6.404 16.227 7.776 4.877 7.776 0v-4.65c0-5.04-1.218-8.934-3.62-11.6 2.458-3.19 2.812-7.5 2.812-10.46l.027-1.053c0-5.843.383-17.938-18.128-25.835-18.51-7.897-31.165-11.32-31.165-11.32l9.693 38.684c2.572.04 5.14.093 7.692.156l-5.783-25.51s11.353 3.32 19.252 7.02c7.12 3.34 10.066 9.767 10.58 15.273v2.68c0 3.687-.64 5.57-1.395 6.544-12.245-.593-25.053-.95-37.973-1.07L-51.61-66.398h-1.314L-63.028-26.3z" fill="#fff"/><g><path d="M57.78 84.3l-.848 3.385c2.686-.09 5.39-.17 8.11-.24.423-1.675.498-2.025.836-3.38-2.716.066-5.413.148-8.097.235" fill="#2d2c2e" clip-path="url(#b)" opacity=".2"/></g><g><path d="M74.82 83.892l-.897 3.674c2.69-.045 5.39-.077 8.09-.1l.9-3.666c-2.704.018-5.404.05-8.094.092" fill="#2d2c2e" clip-path="url(#c)" opacity=".2"/></g><g><path d="M111.46 83.965l.923 3.626c2.616.054 5.224.117 7.812.19l-.925-3.628c-2.593-.07-5.193-.136-7.81-.187" fill="#2d2c2e" clip-path="url(#d)" opacity=".2"/></g><path d="M13.26 127.07c8.12 1.71 36.605 7.058 75.15 7.058h.007c25.98 0 51.534-2.397 76.002-7.12l4.708-87.694c-2.498-2.304-14.645-8.73-36.2-17.098C113.195 14.55 95.523 9.2 89.953 9.2c-.087 0-.167.002-.25.005H87.97c-.077-.003-.16-.005-.246-.005-5.57 0-23.24 5.35-42.974 13.015-21.557 8.37-33.705 14.796-36.204 17.1l4.714 87.755zm61.9-113.51h-.01c-46.48 0-78.71-7.68-79.03-7.756l-2.353-.57-5.04-93.86.02-.233c.17-1.906.57-6.375 38.214-21.21 16.754-6.596 39.245-14.305 47.504-14.305.145 0 .287.003.423.006h1.382c7.87-.273 30.88 7.585 47.924 14.3 37.643 14.835 38.043 19.302 38.215 21.21l.02.234-.012.23-5.035 93.732-2.474.494c-25.636 5.13-52.47 7.73-79.75 7.73" fill="#fff"/><path d="M49.304 166.74l-.75-6.46c43.496-5.048 80.032-.043 80.395.01l-.906 6.44c-.356-.05-36.11-4.935-78.74.01" fill="#fff"/></g></svg>