<?xml version="1.0" encoding="UTF-8" standalone="no"?>
<!-- Created with Inkscape (http://www.inkscape.org/) -->

<svg
   xmlns:dc="http://purl.org/dc/elements/1.1/"
   xmlns:cc="http://creativecommons.org/ns#"
   xmlns:rdf="http://www.w3.org/1999/02/22-rdf-syntax-ns#"
   xmlns:svg="http://www.w3.org/2000/svg"
   xmlns="http://www.w3.org/2000/svg"
   xmlns:inkscape="http://www.inkscape.org/namespaces/inkscape"
   version="1.1"
   width="177.5"
   height="169.1675"
   id="svg2"
   xml:space="preserve"><metadata
     id="metadata8"><rdf:RDF><cc:Work
         rdf:about=""><dc:format>image/svg+xml</dc:format><dc:type
           rdf:resource="http://purl.org/dc/dcmitype/StillImage" /></cc:Work></rdf:RDF></metadata><defs
     id="defs6"><clipPath
       id="clipPath16"><path
         d="m 0,135.334 142,0 L 142,0 0,0 0,135.334 z"
         inkscape:connector-curvature="0"
         id="path18" /></clipPath><clipPath
       id="clipPath28"><path
         d="m 45.5459,68.0811 7.1572,0 0,-2.8956 -7.1572,0 0,2.8956 z"
         inkscape:connector-curvature="0"
         id="path30" /></clipPath><clipPath
       id="clipPath32"><path
         d="m 45.546,65.186 7.156,0 0,2.895 -7.156,0 0,-2.895 z"
         inkscape:connector-curvature="0"
         id="path34" /></clipPath><clipPath
       id="clipPath52"><path
         d="m 59.1382,68.2944 7.1919,0 0,-3.0141 -7.1919,0 0,3.0141 z"
         inkscape:connector-curvature="0"
         id="path54" /></clipPath><clipPath
       id="clipPath56"><path
         d="m 59.139,65.28 7.191,0 0,3.014 -7.191,0 0,-3.014 z"
         inkscape:connector-curvature="0"
         id="path58" /></clipPath><clipPath
       id="clipPath76"><path
         d="m 89.1675,68.1616 6.9892,0 0,-3.0532 -6.9892,0 0,3.0532 z"
         inkscape:connector-curvature="0"
         id="path78" /></clipPath><clipPath
       id="clipPath80"><path
         d="m 89.167,65.109 6.989,0 0,3.052 -6.989,0 0,-3.052 z"
         inkscape:connector-curvature="0"
         id="path82" /></clipPath></defs><g
     transform="matrix(1.25,0,0,-1.25,0,169.1675)"
     id="g10"><g
       id="g12"><g
         clip-path="url(#clipPath16)"
         id="g14"><g
           transform="translate(112.7124,56.6934)"
           id="g20"><path
             d="m 0,0 c 0,-6.248 -2.6,-6.772 -5.037,-6.772 l -7.627,0 -4.632,18.089 c 4.819,-0.129 9.58,-0.303 14.243,-0.521 l 0.291,-0.09 C -2.008,10.472 0,8.879 0,3.721 L 0,0 z m -50.422,21.041 c 2.142,0.024 4.289,0.042 6.44,0.054 l 2.127,8.476 3.246,-12.62 c -13.715,0.024 -27.414,-0.285 -40.276,-0.931 -0.113,-0.006 0.032,-5.325 0,-5.325 4.046,0.203 8.209,0.368 12.398,0.505 l -4.553,-17.944 -4.692,0 c -5.082,0 -7.553,2.514 -7.553,7.686 l 0.005,21.079 c 0,4.666 2.219,10.672 8.538,13.634 6.317,2.959 15.401,5.616 15.401,5.616 l -4.67,-20.512 c 2.042,0.058 4.097,0.109 6.159,0.154 l 7.792,31.021 c 0,0 -10.124,-2.738 -24.932,-9.056 C -89.801,36.561 -89.493,26.885 -89.493,22.21 L -89.504,0.942 c 0,-8.717 5.148,-13.924 13.772,-13.924 l 9.552,-0.001 c 0,0 4.227,16.624 6.17,24.37 2.373,0.057 4.758,0.102 7.153,0.141 l -6.172,-24.511 6.43,0 6.216,24.585 c 3.045,0.023 6.094,0.028 9.145,0.02 l 6.336,-24.605 6.417,0 -6.324,24.558 c 2.428,-0.027 4.852,-0.06 7.264,-0.107 l 6.266,-24.451 12.242,0.001 c 10.16,0 11.258,9.08 11.258,12.982 l 0,3.721 c 0,4.031 -0.975,7.146 -2.897,9.279 1.967,2.552 2.25,5.999 2.25,8.368 l 0.022,0.842 c 0,4.675 0.306,14.351 -14.502,20.668 -14.809,6.318 -24.932,9.056 -24.932,9.056 l 7.754,-30.947 c 2.058,-0.033 4.111,-0.074 6.154,-0.125 l -4.627,20.409 c 0,0 9.083,-2.657 15.402,-5.616 5.697,-2.672 8.053,-7.814 8.464,-12.219 l 0,-2.145 c 0,-2.949 -0.512,-4.456 -1.116,-5.234 -9.797,0.473 -20.043,0.76 -30.379,0.855 l -9.101,36.206 -1.052,0 -8.083,-32.077 z"
             inkscape:connector-curvature="0"
             id="path22"
             style="fill:#ffffff;fill-opacity:1;fill-rule:nonzero;stroke:none" /></g><g
           id="g24"><g
             id="g26" /><g
             id="g36"><g
               clip-path="url(#clipPath28)"
               id="g38"
               style="opacity:0.19999701"><g
                 id="g40"><g
                   clip-path="url(#clipPath32)"
                   id="g42"><g
                     transform="translate(46.2251,67.894)"
                     id="g44"><path
                       d="m 0,0 -0.679,-2.708 c 2.149,0.073 4.311,0.136 6.487,0.191 0.339,1.341 0.399,1.621 0.67,2.704 C 4.305,0.135 2.147,0.07 0,0"
                       inkscape:connector-curvature="0"
                       id="path46"
                       style="fill:#2d2c2e;fill-opacity:1;fill-rule:nonzero;stroke:none" /></g></g></g></g></g></g><g
           id="g48"><g
             id="g50" /><g
             id="g60"><g
               clip-path="url(#clipPath52)"
               id="g62"
               style="opacity:0.19999701"><g
                 id="g64"><g
                   clip-path="url(#clipPath56)"
                   id="g66"><g
                     transform="translate(59.855,68.2202)"
                     id="g68"><path
                       d="m 0,0 -0.717,-2.939 c 2.151,0.036 4.311,0.061 6.473,0.08 L 6.475,0.074 C 4.312,0.059 2.152,0.034 0,0"
                       inkscape:connector-curvature="0"
                       id="path70"
                       style="fill:#2d2c2e;fill-opacity:1;fill-rule:nonzero;stroke:none" /></g></g></g></g></g></g><g
           id="g72"><g
             id="g74" /><g
             id="g84"><g
               clip-path="url(#clipPath76)"
               id="g86"
               style="opacity:0.19999701"><g
                 id="g88"><g
                   clip-path="url(#clipPath80)"
                   id="g90"><g
                     transform="translate(89.1675,68.1616)"
                     id="g92"><path
                       d="m 0,0 0.739,-2.901 c 2.093,-0.042 4.179,-0.093 6.25,-0.152 L 6.249,-0.15 C 4.174,-0.094 2.094,-0.041 0,0"
                       inkscape:connector-curvature="0"
                       id="path94"
                       style="fill:#2d2c2e;fill-opacity:1;fill-rule:nonzero;stroke:none" /></g></g></g></g></g></g><g
           transform="translate(10.6079,33.6777)"
           id="g96"><path
             d="m 0,0 c 6.495,-1.367 29.284,-5.646 60.12,-5.646 l 0.006,0 c 20.784,0 41.227,1.917 60.801,5.695 l 3.767,70.156 c -1.998,1.843 -11.716,6.983 -28.96,13.678 -15.786,6.132 -29.924,10.413 -34.38,10.413 -0.069,0 -0.133,-0.002 -0.2,-0.004 l -0.093,-0.001 -1.292,0.001 c -0.063,0.002 -0.129,0.004 -0.198,0.004 -4.455,0 -18.592,-4.281 -34.379,-10.412 C 7.946,77.188 -1.772,72.047 -3.771,70.205 L 0,0 z m 60.127,-10.849 -0.007,0 c -37.183,0 -62.969,6.146 -63.224,6.206 l -1.882,0.456 -4.033,75.088 0.016,0.186 c 0.137,1.526 0.457,5.101 30.572,16.968 13.402,5.278 31.395,11.445 38.002,11.445 0.116,0 0.23,-0.002 0.339,-0.005 l 1.105,0 c 6.298,0.219 24.704,-6.067 38.34,-11.44 30.115,-11.867 30.435,-15.441 30.572,-16.968 l 0.016,-0.186 -0.009,-0.185 -4.028,-74.985 -1.979,-0.395 c -20.508,-4.105 -41.975,-6.185 -63.8,-6.185"
             inkscape:connector-curvature="0"
             id="path98"
             style="fill:#ffffff;fill-opacity:1;fill-rule:nonzero;stroke:none" /></g><g
           transform="translate(39.4429,1.9414)"
           id="g100"><path
             d="M 0,0 -0.6,5.17 C 34.197,9.207 63.426,5.203 63.716,5.162 L 62.992,0.009 C 62.707,0.049 34.104,3.957 0,0"
             inkscape:connector-curvature="0"
             id="path102"
             style="fill:#ffffff;fill-opacity:1;fill-rule:nonzero;stroke:none" /></g></g></g></g></svg>